STARTFONT 2.1
COMMENT GFtoPK 2.3 output from METAFONT output 1994.05.19:0935
COMMENT identifier CMSY
COMMENT codingscheme TeX math symbols
COMMENT fontfacebyte
COMMENT Nr: 15335424
COMMENT Checksum 21222c9a
COMMENT 
COMMENT This file is made by pktobdf using the above specified pk file.
COMMENT 
FONT -metafont-cmsy10-medium-r-normal--15-140-75-75-p-77-metafont-fontspecific
SIZE 15 75 75
FONTBOUNDINGBOX 16 25 -1 -14
STARTPROPERTIES 22
FONT_ASCENT 11
FONT_DESCENT 4
DEFAULT_CHAR 65
FOUNDRY "metafont"
FAMILY_NAME "cmsy10"
WEIGHT_NAME "medium"
SLANT "r"
SETWIDTH_NAME "normal"
ADD_STYLE_NAME ""
PIXEL_SIZE 15
POINT_SIZE 140
RESOLUTION_X 75
RESOLUTION_Y 75
SPACING "P"
AVERAGE_WIDTH 77
CHARSET_REGISTRY "Metafont"
CHARSET_ENCODING "FONTSPECIFIC"
AVG_CAPITAL_WIDTH 19
AVG_LOWERCASE_WIDTH 10
COPYRIGHT "Metafont (public domain)"
FULLNAME "cmsy10"
DEVICE_FONT_NAME "cmsy10"
ENDPROPERTIES
CHARS 128
STARTCHAR Gamma
ENCODING 0
SWIDTH 750 0
DWIDTH 11 0
BBX 8 1 1 3
BITMAP
ff
ENDCHAR
STARTCHAR Delta
ENCODING 1
SWIDTH 272 0
DWIDTH 4 0
BBX 2 2 1 3
BITMAP
c0
c0
ENDCHAR
STARTCHAR Theta
ENCODING 2
SWIDTH 750 0
DWIDTH 11 0
BBX 6 7 2 0
BITMAP
84
48
30
20
30
48
84
ENDCHAR
STARTCHAR Lamdba
ENCODING 3
SWIDTH 477 0
DWIDTH 7 0
BBX 6 6 0 1
BITMAP
10
94
78
78
94
10
ENDCHAR
STARTCHAR Xi
ENCODING 4
SWIDTH 750 0
DWIDTH 11 0
BBX 8 9 1 -1
BITMAP
18
18
00
00
ff
00
00
18
18
ENDCHAR
STARTCHAR Pi
ENCODING 5
SWIDTH 545 0
DWIDTH 8 0
BBX 7 7 0 0
BITMAP
10
28
44
82
44
28
10
ENDCHAR
STARTCHAR Sigma
ENCODING 6
SWIDTH 750 0
DWIDTH 11 0
BBX 8 9 1 0
BITMAP
08
08
08
08
ff
08
08
08
ff
ENDCHAR
STARTCHAR Upsilon
ENCODING 7
SWIDTH 750 0
DWIDTH 11 0
BBX 8 9 1 -2
BITMAP
ff
08
08
08
ff
08
08
08
08
ENDCHAR
STARTCHAR Phi
ENCODING 8
SWIDTH 750 0
DWIDTH 11 0
BBX 8 9 1 -1
BITMAP
3c
4a
89
89
ff
89
89
4a
3c
ENDCHAR
STARTCHAR Psi
ENCODING 9
SWIDTH 750 0
DWIDTH 11 0
BBX 8 9 1 -1
BITMAP
3c
42
81
81
ff
81
81
42
3c
ENDCHAR
STARTCHAR Omega
ENCODING 10
SWIDTH 750 0
DWIDTH 11 0
BBX 8 9 1 -1
BITMAP
3c
42
a5
99
91
99
a5
42
3c
ENDCHAR
STARTCHAR arrowup
ENCODING 11
SWIDTH 750 0
DWIDTH 11 0
BBX 8 9 1 -1
BITMAP
3c
42
85
89
91
91
a1
42
3c
ENDCHAR
STARTCHAR arrowdown
ENCODING 12
SWIDTH 750 0
DWIDTH 11 0
BBX 8 9 1 -1
BITMAP
3c
42
81
99
99
99
81
42
3c
ENDCHAR
STARTCHAR quotesingle
ENCODING 13
SWIDTH 1023 0
DWIDTH 15 0
BBX 12 13 1 -3
BITMAP
1f80
2040
4020
4020
8010
8010
8010
8010
8010
4020
4020
2040
1f80
ENDCHAR
STARTCHAR exclamdown
ENCODING 14
SWIDTH 477 0
DWIDTH 7 0
BBX 4 5 1 1
BITMAP
60
90
90
90
60
ENDCHAR
STARTCHAR questiondown
ENCODING 15
SWIDTH 477 0
DWIDTH 7 0
BBX 4 5 1 1
BITMAP
60
f0
f0
f0
60
ENDCHAR
STARTCHAR dotlessi
ENCODING 16
SWIDTH 750 0
DWIDTH 11 0
BBX 8 9 1 -1
BITMAP
81
42
3c
00
00
00
3c
42
81
ENDCHAR
STARTCHAR dotlessj
ENCODING 17
SWIDTH 750 0
DWIDTH 11 0
BBX 8 7 1 0
BITMAP
ff
00
00
ff
00
00
ff
ENDCHAR
STARTCHAR grave
ENCODING 18
SWIDTH 750 0
DWIDTH 11 0
BBX 8 12 1 -3
BITMAP
3f
40
80
80
80
80
80
40
3f
00
00
ff
ENDCHAR
STARTCHAR acute
ENCODING 19
SWIDTH 750 0
DWIDTH 11 0
BBX 8 12 1 -3
BITMAP
fc
02
01
01
01
01
01
02
fc
00
00
ff
ENDCHAR
STARTCHAR caron
ENCODING 20
SWIDTH 750 0
DWIDTH 11 0
BBX 8 12 1 -3
BITMAP
01
06
18
60
80
60
18
06
01
00
00
ff
ENDCHAR
STARTCHAR breve
ENCODING 21
SWIDTH 750 0
DWIDTH 11 0
BBX 8 12 1 -3
BITMAP
80
60
18
06
01
06
18
60
80
00
00
ff
ENDCHAR
STARTCHAR macron
ENCODING 22
SWIDTH 750 0
DWIDTH 11 0
BBX 8 12 1 -3
BITMAP
01
01
02
0c
f0
0c
02
01
01
00
00
ff
ENDCHAR
STARTCHAR ring
ENCODING 23
SWIDTH 750 0
DWIDTH 11 0
BBX 8 12 1 -3
BITMAP
80
80
40
30
0f
30
40
80
80
00
00
ff
ENDCHAR
STARTCHAR cedilla
ENCODING 24
SWIDTH 750 0
DWIDTH 11 0
BBX 8 3 1 2
BITMAP
61
99
86
ENDCHAR
STARTCHAR germandbls
ENCODING 25
SWIDTH 750 0
DWIDTH 11 0
BBX 8 7 1 0
BITMAP
61
99
86
00
61
99
86
ENDCHAR
STARTCHAR ae
ENCODING 26
SWIDTH 750 0
DWIDTH 11 0
BBX 8 9 1 -1
BITMAP
3f
40
80
80
80
80
80
40
3f
ENDCHAR
STARTCHAR oe
ENCODING 27
SWIDTH 750 0
DWIDTH 11 0
BBX 8 9 1 -1
BITMAP
fc
02
01
01
01
01
01
02
fc
ENDCHAR
STARTCHAR oslash
ENCODING 28
SWIDTH 1023 0
DWIDTH 15 0
BBX 12 9 1 -1
BITMAP
0330
0cc0
1100
6600
8800
6600
1100
0cc0
0330
ENDCHAR
STARTCHAR AE
ENCODING 29
SWIDTH 1023 0
DWIDTH 15 0
BBX 12 9 1 -1
BITMAP
cc00
3300
0880
0660
0110
0660
0880
3300
cc00
ENDCHAR
STARTCHAR OE
ENCODING 30
SWIDTH 750 0
DWIDTH 11 0
BBX 8 9 1 -1
BITMAP
01
01
02
0c
f0
0c
02
01
01
ENDCHAR
STARTCHAR Oslash
ENCODING 31
SWIDTH 750 0
DWIDTH 11 0
BBX 8 9 1 -1
BITMAP
80
80
40
30
0f
30
40
80
80
ENDCHAR
STARTCHAR tilde
ENCODING 32
SWIDTH 1023 0
DWIDTH 15 0
BBX 12 5 1 1
BITMAP
2000
4000
fff0
4000
2000
ENDCHAR
STARTCHAR exclam
ENCODING 33
SWIDTH 1023 0
DWIDTH 15 0
BBX 12 5 1 1
BITMAP
0040
0020
fff0
0020
0040
ENDCHAR
STARTCHAR quotedblright
ENCODING 34
SWIDTH 477 0
DWIDTH 7 0
BBX 5 13 1 -3
BITMAP
20
70
a8
20
20
20
20
20
20
20
20
20
20
ENDCHAR
STARTCHAR numbersign
ENCODING 35
SWIDTH 477 0
DWIDTH 7 0
BBX 5 13 1 -3
BITMAP
20
20
20
20
20
20
20
20
20
20
a8
70
20
ENDCHAR
STARTCHAR dollar
ENCODING 36
SWIDTH 1023 0
DWIDTH 15 0
BBX 12 5 1 1
BITMAP
2040
4020
fff0
4020
2040
ENDCHAR
STARTCHAR percent
ENCODING 37
SWIDTH 1023 0
DWIDTH 15 0
BBX 12 12 1 -2
BITMAP
0070
0030
0050
0080
0100
0200
0400
0800
1000
2000
4000
8000
ENDCHAR
STARTCHAR ampersand
ENCODING 38
SWIDTH 1023 0
DWIDTH 15 0
BBX 12 12 1 -3
BITMAP
8000
4000
2000
1000
0800
0400
0200
0100
0080
0050
0030
0070
ENDCHAR
STARTCHAR quoteright
ENCODING 39
SWIDTH 750 0
DWIDTH 11 0
BBX 8 7 1 0
BITMAP
61
91
89
86
00
00
ff
ENDCHAR
STARTCHAR parenleft
ENCODING 40
SWIDTH 1023 0
DWIDTH 15 0
BBX 11 7 2 0
BITMAP
1000
3fe0
c000
8000
4000
3fe0
1000
ENDCHAR
STARTCHAR parenright
ENCODING 41
SWIDTH 1023 0
DWIDTH 15 0
BBX 11 7 1 0
BITMAP
0100
ff80
0060
0020
0040
ff80
0100
ENDCHAR
STARTCHAR asterisk
ENCODING 42
SWIDTH 614 0
DWIDTH 9 0
BBX 8 12 0 -3
BITMAP
18
18
66
a5
24
24
24
24
24
24
24
24
ENDCHAR
STARTCHAR plus
ENCODING 43
SWIDTH 614 0
DWIDTH 9 0
BBX 8 12 0 -2
BITMAP
24
24
24
24
24
24
24
24
a5
66
18
18
ENDCHAR
STARTCHAR comma
ENCODING 44
SWIDTH 1023 0
DWIDTH 15 0
BBX 10 7 2 0
BITMAP
2100
7f80
8040
8040
4080
3f00
2100
ENDCHAR
STARTCHAR hyphen
ENCODING 45
SWIDTH 1023 0
DWIDTH 15 0
BBX 12 12 1 -2
BITMAP
e000
c000
a000
1000
0800
0400
0200
0100
0080
0040
0020
0010
ENDCHAR
STARTCHAR period
ENCODING 46
SWIDTH 1023 0
DWIDTH 15 0
BBX 12 12 1 -3
BITMAP
0010
0020
0040
0080
0100
0200
0400
0800
1000
a000
c000
e000
ENDCHAR
STARTCHAR slash
ENCODING 47
SWIDTH 750 0
DWIDTH 11 0
BBX 8 6 1 0
BITMAP
63
94
8c
8c
8a
71
ENDCHAR
STARTCHAR 0
ENCODING 48
SWIDTH 272 0
DWIDTH 4 0
BBX 3 8 0 0
BITMAP
60
60
60
40
c0
c0
80
80
ENDCHAR
STARTCHAR 1
ENCODING 49
SWIDTH 1023 0
DWIDTH 15 0
BBX 12 6 1 0
BITMAP
70e0
8910
8610
8610
8910
70e0
ENDCHAR
STARTCHAR 2
ENCODING 50
SWIDTH 682 0
DWIDTH 10 0
BBX 7 9 1 -1
BITMAP
3e
40
80
80
fe
80
80
40
3e
ENDCHAR
STARTCHAR 3
ENCODING 51
SWIDTH 682 0
DWIDTH 10 0
BBX 7 9 1 -1
BITMAP
f8
04
02
02
fe
02
02
04
f8
ENDCHAR
STARTCHAR 4
ENCODING 52
SWIDTH 955 0
DWIDTH 14 0
BBX 11 10 1 0
BITMAP
0400
0a00
0a00
1100
1100
2080
2080
4040
4040
ffe0
ENDCHAR
STARTCHAR 5
ENCODING 53
SWIDTH 955 0
DWIDTH 14 0
BBX 11 10 1 -3
BITMAP
ffe0
4040
4040
2080
2080
1100
1100
0a00
0a00
0400
ENDCHAR
STARTCHAR 6
ENCODING 54
SWIDTH 0 0
DWIDTH 0 0
BBX 6 13 2 -3
BITMAP
04
04
08
08
10
10
20
20
20
40
40
80
80
ENDCHAR
STARTCHAR 7
ENCODING 55
SWIDTH 0 0
DWIDTH 0 0
BBX 1 5 1 1
BITMAP
80
80
80
80
80
ENDCHAR
STARTCHAR 8
ENCODING 56
SWIDTH 545 0
DWIDTH 8 0
BBX 7 10 0 0
BITMAP
82
82
44
7c
44
28
28
28
10
10
ENDCHAR
STARTCHAR 9
ENCODING 57
SWIDTH 545 0
DWIDTH 8 0
BBX 5 10 1 0
BITMAP
f8
08
08
08
78
08
08
08
08
f8
ENDCHAR
STARTCHAR colon
ENCODING 58
SWIDTH 682 0
DWIDTH 10 0
BBX 7 4 1 1
BITMAP
fe
02
02
02
ENDCHAR
STARTCHAR semicolon
ENCODING 59
SWIDTH 477 0
DWIDTH 7 0
BBX 4 12 1 -1
BITMAP
20
60
b0
b0
b0
b0
d0
d0
d0
d0
60
40
ENDCHAR
STARTCHAR less
ENCODING 60
SWIDTH 682 0
DWIDTH 10 0
BBX 8 10 1 0
BITMAP
6c
b2
92
51
5e
d8
18
18
98
e7
ENDCHAR
STARTCHAR equal
ENCODING 61
SWIDTH 682 0
DWIDTH 10 0
BBX 8 10 1 0
BITMAP
38
45
83
80
43
33
02
c2
24
1c
ENDCHAR
STARTCHAR greater
ENCODING 62
SWIDTH 818 0
DWIDTH 12 0
BBX 9 9 1 0
BITMAP
ff80
0800
0800
0800
0800
0800
0800
0800
0800
ENDCHAR
STARTCHAR question
ENCODING 63
SWIDTH 818 0
DWIDTH 12 0
BBX 9 9 1 0
BITMAP
0800
0800
0800
0800
0800
0800
0800
0800
ff80
ENDCHAR
STARTCHAR at
ENCODING 64
SWIDTH 614 0
DWIDTH 9 0
BBX 6 10 1 0
BITMAP
88
48
4c
ac
a8
98
98
48
48
c4
ENDCHAR
STARTCHAR A
ENCODING 65
SWIDTH 818 0
DWIDTH 12 0
BBX 10 10 0 0
BITMAP
0100
0300
0300
0500
0500
0900
0f80
1100
a080
c0c0
ENDCHAR
STARTCHAR B
ENCODING 66
SWIDTH 682 0
DWIDTH 10 0
BBX 8 10 0 0
BITMAP
26
39
31
26
2e
21
41
41
42
bc
ENDCHAR
STARTCHAR C
ENCODING 67
SWIDTH 545 0
DWIDTH 8 0
BBX 7 10 0 0
BITMAP
1e
22
42
40
80
80
80
80
44
38
ENDCHAR
STARTCHAR D
ENCODING 68
SWIDTH 750 0
DWIDTH 11 0
BBX 9 10 0 0
BITMAP
7e00
9100
9080
1080
1080
1080
2100
2200
2400
7800
ENDCHAR
STARTCHAR E
ENCODING 69
SWIDTH 545 0
DWIDTH 8 0
BBX 6 10 1 0
BITMAP
1c
24
40
40
30
40
80
80
88
70
ENDCHAR
STARTCHAR F
ENCODING 70
SWIDTH 682 0
DWIDTH 10 0
BBX 10 10 1 0
BITMAP
1fc0
2440
4800
0800
0800
1f00
1000
1000
2000
c000
ENDCHAR
STARTCHAR G
ENCODING 71
SWIDTH 614 0
DWIDTH 9 0
BBX 8 11 0 -1
BITMAP
1e
21
42
40
80
82
82
86
7c
08
f0
ENDCHAR
STARTCHAR H
ENCODING 72
SWIDTH 818 0
DWIDTH 12 0
BBX 11 10 0 0
BITMAP
7020
9040
9040
1080
1f80
2100
2100
2100
4100
41c0
ENDCHAR
STARTCHAR I
ENCODING 73
SWIDTH 545 0
DWIDTH 8 0
BBX 9 10 -1 0
BITMAP
3f80
4400
0400
0400
0800
0800
0800
1000
1200
fe00
ENDCHAR
STARTCHAR J
ENCODING 74
SWIDTH 682 0
DWIDTH 10 0
BBX 10 11 0 -1
BITMAP
07c0
0880
1100
1100
0200
0200
0200
0200
0400
8400
7800
ENDCHAR
STARTCHAR K
ENCODING 75
SWIDTH 750 0
DWIDTH 11 0
BBX 9 10 0 0
BITMAP
2180
2680
2800
3000
3000
3000
4800
4800
4480
8300
ENDCHAR
STARTCHAR L
ENCODING 76
SWIDTH 682 0
DWIDTH 10 0
BBX 8 10 0 0
BITMAP
06
09
10
10
10
20
20
20
71
8e
ENDCHAR
STARTCHAR M
ENCODING 77
SWIDTH 1160 0
DWIDTH 17 0
BBX 15 10 0 0
BITMAP
0802
0804
080c
0c14
1414
1428
1248
2288
2308
c00c
ENDCHAR
STARTCHAR N
ENCODING 78
SWIDTH 818 0
DWIDTH 12 0
BBX 13 11 0 0
BITMAP
0018
0820
0840
0840
1440
1480
1480
1480
2280
2300
c100
ENDCHAR
STARTCHAR O
ENCODING 79
SWIDTH 818 0
DWIDTH 12 0
BBX 9 10 1 0
BITMAP
1f00
2880
4880
5080
8080
8080
8100
8100
4600
3800
ENDCHAR
STARTCHAR P
ENCODING 80
SWIDTH 682 0
DWIDTH 10 0
BBX 9 11 0 -1
BITMAP
7e00
9180
9080
1080
1100
1200
3c00
2000
2000
4000
4000
ENDCHAR
STARTCHAR Q
ENCODING 81
SWIDTH 818 0
DWIDTH 12 0
BBX 8 11 1 -1
BITMAP
1e
22
41
41
81
81
82
8c
78
f0
0f
ENDCHAR
STARTCHAR R
ENCODING 82
SWIDTH 818 0
DWIDTH 12 0
BBX 10 10 0 0
BITMAP
7f00
9080
9080
1080
1100
1e00
2400
2200
2240
4180
ENDCHAR
STARTCHAR S
ENCODING 83
SWIDTH 614 0
DWIDTH 9 0
BBX 8 10 1 0
BITMAP
0e
31
20
20
18
04
82
82
84
78
ENDCHAR
STARTCHAR T
ENCODING 84
SWIDTH 545 0
DWIDTH 8 0
BBX 9 10 1 0
BITMAP
7f80
8400
8800
0800
0800
0800
1000
1000
2000
7800
ENDCHAR
STARTCHAR U
ENCODING 85
SWIDTH 614 0
DWIDTH 9 0
BBX 9 10 0 0
BITMAP
6080
2080
2080
4100
4100
4300
8600
8a00
9200
6300
ENDCHAR
STARTCHAR V
ENCODING 86
SWIDTH 614 0
DWIDTH 9 0
BBX 8 10 1 0
BITMAP
c2
41
21
21
22
24
24
28
50
60
ENDCHAR
STARTCHAR W
ENCODING 87
SWIDTH 955 0
DWIDTH 14 0
BBX 14 10 1 0
BITMAP
c108
2104
2284
2284
2488
2888
2890
30a0
60a0
60c0
ENDCHAR
STARTCHAR X
ENCODING 88
SWIDTH 682 0
DWIDTH 10 0
BBX 10 10 0 0
BITMAP
1840
0440
0480
0700
0400
0c00
3400
4400
8400
c300
ENDCHAR
STARTCHAR Y
ENCODING 89
SWIDTH 682 0
DWIDTH 10 0
BBX 9 11 0 -1
BITMAP
6100
1080
0880
0880
0900
0900
0a00
0c00
0800
9000
6000
ENDCHAR
STARTCHAR Z
ENCODING 90
SWIDTH 750 0
DWIDTH 11 0
BBX 9 10 0 0
BITMAP
0f80
1080
0100
0200
1f00
0800
1000
2100
4100
fe00
ENDCHAR
STARTCHAR bracketleft
ENCODING 91
SWIDTH 682 0
DWIDTH 10 0
BBX 7 9 1 0
BITMAP
82
82
82
82
82
82
82
44
38
ENDCHAR
STARTCHAR leftdblquote
ENCODING 92
SWIDTH 682 0
DWIDTH 10 0
BBX 7 9 1 0
BITMAP
38
44
82
82
82
82
82
82
82
ENDCHAR
STARTCHAR bracketright
ENCODING 93
SWIDTH 682 0
DWIDTH 10 0
BBX 7 9 1 0
BITMAP
82
82
82
92
ba
92
82
44
38
ENDCHAR
STARTCHAR circumflex
ENCODING 94
SWIDTH 682 0
DWIDTH 10 0
BBX 7 9 1 0
BITMAP
10
10
28
28
44
44
44
82
82
ENDCHAR
STARTCHAR dotaccent
ENCODING 95
SWIDTH 682 0
DWIDTH 10 0
BBX 7 9 1 0
BITMAP
82
82
44
44
44
28
28
10
10
ENDCHAR
STARTCHAR leftquote
ENCODING 96
SWIDTH 614 0
DWIDTH 9 0
BBX 6 10 1 0
BITMAP
80
80
80
80
fc
80
80
80
80
80
ENDCHAR
STARTCHAR a
ENCODING 97
SWIDTH 614 0
DWIDTH 9 0
BBX 5 10 2 0
BITMAP
08
08
08
08
f8
08
08
08
08
08
ENDCHAR
STARTCHAR b
ENCODING 98
SWIDTH 409 0
DWIDTH 6 0
BBX 4 15 2 -4
BITMAP
80
80
80
80
80
80
80
80
80
80
80
80
80
80
f0
ENDCHAR
STARTCHAR c
ENCODING 99
SWIDTH 409 0
DWIDTH 6 0
BBX 4 15 -1 -4
BITMAP
10
10
10
10
10
10
10
10
10
10
10
10
10
10
f0
ENDCHAR
STARTCHAR d
ENCODING 100
SWIDTH 409 0
DWIDTH 6 0
BBX 4 15 2 -4
BITMAP
f0
80
80
80
80
80
80
80
80
80
80
80
80
80
80
ENDCHAR
STARTCHAR e
ENCODING 101
SWIDTH 409 0
DWIDTH 6 0
BBX 4 15 -1 -4
BITMAP
f0
10
10
10
10
10
10
10
10
10
10
10
10
10
10
ENDCHAR
STARTCHAR f
ENCODING 102
SWIDTH 477 0
DWIDTH 7 0
BBX 4 15 1 -4
BITMAP
10
20
20
20
20
20
20
c0
20
20
20
20
20
20
10
ENDCHAR
STARTCHAR g
ENCODING 103
SWIDTH 477 0
DWIDTH 7 0
BBX 4 15 1 -4
BITMAP
c0
20
20
20
20
20
20
10
20
20
20
20
20
20
c0
ENDCHAR
STARTCHAR h
ENCODING 104
SWIDTH 409 0
DWIDTH 6 0
BBX 3 15 1 -4
BITMAP
20
20
40
40
40
40
80
80
80
40
40
40
40
20
20
ENDCHAR
STARTCHAR i
ENCODING 105
SWIDTH 409 0
DWIDTH 6 0
BBX 3 15 1 -4
BITMAP
80
80
40
40
40
40
20
20
20
40
40
40
40
80
80
ENDCHAR
STARTCHAR j
ENCODING 106
SWIDTH 272 0
DWIDTH 4 0
BBX 1 15 1 -4
BITMAP
80
80
80
80
80
80
80
80
80
80
80
80
80
80
80
ENDCHAR
STARTCHAR k
ENCODING 107
SWIDTH 477 0
DWIDTH 7 0
BBX 4 15 1 -4
BITMAP
90
90
90
90
90
90
90
90
90
90
90
90
90
90
90
ENDCHAR
STARTCHAR l
ENCODING 108
SWIDTH 477 0
DWIDTH 7 0
BBX 5 15 1 -4
BITMAP
20
70
a8
20
20
20
20
20
20
20
20
20
a8
70
20
ENDCHAR
STARTCHAR m
ENCODING 109
SWIDTH 614 0
DWIDTH 9 0
BBX 8 13 0 -3
BITMAP
18
24
e7
24
24
24
24
24
24
24
e7
24
18
ENDCHAR
STARTCHAR n
ENCODING 110
SWIDTH 477 0
DWIDTH 7 0
BBX 4 15 1 -4
BITMAP
80
80
80
40
40
40
40
40
20
20
20
20
10
10
10
ENDCHAR
STARTCHAR o
ENCODING 111
SWIDTH 272 0
DWIDTH 4 0
BBX 1 9 1 -1
BITMAP
80
80
80
80
80
80
80
80
80
ENDCHAR
STARTCHAR p
ENCODING 112
SWIDTH 818 0
DWIDTH 12 0
BBX 11 15 1 -14
BITMAP
0020
0040
0040
0080
0080
0100
0100
0200
8200
4400
4400
2800
2800
3000
1000
ENDCHAR
STARTCHAR q
ENCODING 113
SWIDTH 750 0
DWIDTH 11 0
BBX 8 10 1 0
BITMAP
e7
42
42
42
42
42
42
42
42
ff
ENDCHAR
STARTCHAR r
ENCODING 114
SWIDTH 818 0
DWIDTH 12 0
BBX 9 10 1 0
BITMAP
ff80
8080
4100
4100
2200
2200
3600
1400
1400
0800
ENDCHAR
STARTCHAR s
ENCODING 115
SWIDTH 409 0
DWIDTH 6 0
BBX 5 13 1 -3
BITMAP
18
18
10
20
20
20
20
20
20
20
40
c0
c0
ENDCHAR
STARTCHAR t
ENCODING 116
SWIDTH 682 0
DWIDTH 10 0
BBX 7 9 1 0
BITMAP
82
82
82
82
82
82
82
82
fe
ENDCHAR
STARTCHAR u
ENCODING 117
SWIDTH 682 0
DWIDTH 10 0
BBX 7 9 1 0
BITMAP
fe
82
82
82
82
82
82
82
82
ENDCHAR
STARTCHAR v
ENCODING 118
SWIDTH 750 0
DWIDTH 11 0
BBX 9 12 1 -3
BITMAP
ff80
8000
8000
8000
8000
8000
8000
8000
ff80
0000
0000
ff00
ENDCHAR
STARTCHAR w
ENCODING 119
SWIDTH 750 0
DWIDTH 11 0
BBX 9 12 0 -3
BITMAP
ff80
0080
0080
0080
0080
0080
0080
0080
7f80
0000
0000
7f80
ENDCHAR
STARTCHAR x
ENCODING 120
SWIDTH 409 0
DWIDTH 6 0
BBX 3 13 1 -3
BITMAP
40
a0
80
80
40
a0
a0
a0
40
20
20
a0
40
ENDCHAR
STARTCHAR y
ENCODING 121
SWIDTH 409 0
DWIDTH 6 0
BBX 3 13 1 -3
BITMAP
40
40
40
40
e0
40
40
40
40
40
40
40
40
ENDCHAR
STARTCHAR z
ENCODING 122
SWIDTH 409 0
DWIDTH 6 0
BBX 3 13 1 -3
BITMAP
40
40
e0
40
40
40
00
40
40
60
e0
40
40
ENDCHAR
STARTCHAR endash
ENCODING 123
SWIDTH 614 0
DWIDTH 9 0
BBX 7 13 1 -3
BITMAP
7e
e4
e4
e4
e4
e4
64
24
24
24
24
24
24
ENDCHAR
STARTCHAR emdash
ENCODING 124
SWIDTH 818 0
DWIDTH 12 0
BBX 11 12 0 -2
BITMAP
0e00
1f00
1f00
1f00
0e00
7fc0
ffe0
ffe0
f5e0
64c0
0400
0400
ENDCHAR
STARTCHAR quotedbl
ENCODING 125
SWIDTH 818 0
DWIDTH 12 0
BBX 8 12 2 -2
BITMAP
10
28
28
44
82
83
82
82
44
28
28
10
ENDCHAR
STARTCHAR hungarumlaut
ENCODING 126
SWIDTH 818 0
DWIDTH 12 0
BBX 9 10 1 0
BITMAP
7700
8880
8880
8080
8080
4100
2200
1400
0800
0800
ENDCHAR
STARTCHAR dieresis
ENCODING 127
SWIDTH 818 0
DWIDTH 12 0
BBX 9 12 1 -2
BITMAP
0800
0800
1c00
3e00
7f00
ff80
ff80
ff80
eb80
4900
0800
0800
ENDCHAR
ENDFONT
